<svg width="103" height="95" viewBox="0 0 103 95" fill="none" xmlns="http://www.w3.org/2000/svg">
<path d="M35.8824 34.5566C35.907 34.3734 36.1523 34.3358 36.2369 34.4999C36.5731 35.1554 37.172 36.2445 37.7057 36.8085C38.2612 37.3955 39.1447 37.8193 39.5036 37.9762C39.6059 38.021 39.7207 38.023 39.8263 37.9868L39.8849 37.9667C39.917 37.9557 39.9477 37.9413 39.9768 37.9238C42.8964 36.1738 47.1114 35.9238 51.1891 35.9238C55.1237 35.9238 59.4492 36.6957 62.3819 38.4335C62.5235 38.5175 62.6979 38.5273 62.8421 38.4477C63.2392 38.2286 63.9674 37.7808 64.4244 37.2216C64.9158 36.6204 65.4345 35.4915 65.7223 34.8134C65.7948 34.6437 66.0419 34.6629 66.0797 34.8437C66.2517 35.6678 66.5229 37.1871 66.444 38.2578C66.365 39.3281 65.8834 40.2505 65.5676 40.7515C65.456 40.9286 65.4598 41.1569 65.581 41.3277C66.7803 43.0181 67.2154 44.9409 67.2154 47.2607C67.2154 50.4259 67.0044 59.1508 64.4313 61.3261C62.0921 62.8146 60.5109 60.465 57.5338 60.4648C54.1311 60.4648 54.0109 62.0351 50.8209 62.0351C47.6309 62.0351 46.8336 60.4648 44.069 60.4648C41.3207 60.465 40.7606 62.0169 37.8286 60.8507C37.7951 60.8374 37.7621 60.8197 37.733 60.7986C34.5956 58.517 35.1637 50.8171 35.1637 47.2607C35.1637 45.0332 35.6725 42.861 36.852 41.0054C36.9664 40.8254 36.9547 40.5923 36.8279 40.4209C36.4769 39.9463 35.9235 39.0562 35.7662 37.9872C35.61 36.9253 35.7706 35.3911 35.8824 34.5566Z" fill="#FF2344"/>
<g filter="url(#filter0_f_40_421)">
<path d="M64.5949 47.2671C64.5949 49.9147 64.148 52.8375 61.9955 54.6571C59.5426 56.7308 55.1327 56.8168 51.1894 56.8168C47.692 56.8168 43.0944 56.3356 40.7075 54.6571C38.0416 52.7824 37.7838 50.2559 37.7838 47.2671C37.7838 44.4778 38.7381 41.7926 41.0993 39.9435C43.5334 38.0375 47.4313 37.7838 51.1894 37.7838C54.8438 37.7838 58.9015 38.5793 61.3197 40.3937C63.8005 42.2552 64.5949 44.3985 64.5949 47.2671Z" fill="#FF7085"/>
</g>
<path d="M64.595 47.2672C64.595 49.9148 64.1481 52.8375 61.9956 54.6572C59.5427 56.7309 55.1329 56.8168 51.1895 56.8168C47.6921 56.8168 43.0945 56.3357 40.7076 54.6572C38.0417 52.7825 37.7839 50.256 37.7839 47.2672C37.7839 44.4779 38.7382 41.7926 41.0994 39.9436C43.5335 38.0375 47.4314 37.7838 51.1895 37.7838C54.844 37.7838 58.9016 38.5794 61.3198 40.3938C63.8007 42.2552 64.595 44.3986 64.595 47.2672Z" fill="white"/>
<path d="M38.7006 43.3134C38.5013 44.0952 38.4579 44.9087 38.573 45.7072C38.6881 46.5058 38.9593 47.2739 39.3712 47.9676C39.7831 48.6614 40.3276 49.2672 40.9737 49.7505C41.6197 50.2338 42.3546 50.5851 43.1364 50.7844C43.9182 50.9837 44.7316 51.027 45.5302 50.912C46.3288 50.7969 47.0969 50.5257 47.7906 50.1138C48.4844 49.7019 49.0902 49.1573 49.5735 48.5113C50.0568 47.8653 50.4081 47.1304 50.6074 46.3485L44.654 44.831L38.7006 43.3134Z" fill="#082746"/>
<mask id="mask0_40_421" style="mask-type:alpha" maskUnits="userSpaceOnUse" x="38" y="43" width="13" height="8">
<path d="M38.7006 43.3134C38.5013 44.0952 38.4579 44.9087 38.573 45.7072C38.6881 46.5058 38.9593 47.2739 39.3712 47.9676C39.7831 48.6614 40.3276 49.2672 40.9737 49.7505C41.6197 50.2338 42.3546 50.5851 43.1364 50.7844C43.9182 50.9837 44.7316 51.027 45.5302 50.912C46.3288 50.7969 47.0969 50.5257 47.7906 50.1138C48.4844 49.7019 49.0902 49.1573 49.5735 48.5113C50.0568 47.8653 50.4081 47.1304 50.6074 46.3485L44.654 44.831L38.7006 43.3134Z" fill="white"/>
</mask>
<g mask="url(#mask0_40_421)">
<circle cx="44.6049" cy="46.0162" r="2.12823" transform="rotate(-165.7 44.6049 46.0162)" fill="white"/>
</g>
<path d="M63.6386 43.1691C63.8378 43.9509 63.8812 44.7643 63.7661 45.5629C63.6511 46.3614 63.3798 47.1295 62.9679 47.8233C62.556 48.517 62.0115 49.1228 61.3655 49.6061C60.7194 50.0894 59.9845 50.4408 59.2027 50.6401C58.4209 50.8394 57.6075 50.8827 56.8089 50.7676C56.0103 50.6526 55.2422 50.3813 54.5485 49.9694C53.8548 49.5575 53.2489 49.013 52.7656 48.367C52.2823 47.7209 51.931 46.986 51.7317 46.2042L57.6851 44.6866L63.6386 43.1691Z" fill="#082746"/>
<mask id="mask1_40_421" style="mask-type:alpha" maskUnits="userSpaceOnUse" x="51" y="43" width="13" height="8">
<path d="M63.6386 43.1691C63.8378 43.9509 63.8812 44.7643 63.7661 45.5629C63.6511 46.3614 63.3798 47.1295 62.9679 47.8233C62.556 48.517 62.0115 49.1228 61.3655 49.6061C60.7194 50.0894 59.9845 50.4408 59.2027 50.6401C58.4209 50.8394 57.6075 50.8827 56.8089 50.7676C56.0103 50.6526 55.2422 50.3813 54.5485 49.9694C53.8548 49.5575 53.2489 49.013 52.7656 48.367C52.2823 47.7209 51.931 46.986 51.7317 46.2042L57.6851 44.6866L63.6386 43.1691Z" fill="white"/>
</mask>
<g mask="url(#mask1_40_421)">
<circle cx="57.752" cy="45.8334" r="2.12792" transform="rotate(165.7 57.752 45.8334)" fill="white"/>
</g>
<defs>
<filter id="filter0_f_40_421" x="5.34058e-05" y="-7.62939e-06" width="102.379" height="94.6005" filterUnits="userSpaceOnUse" color-interpolation-filters="sRGB">
<feFlood flood-opacity="0" result="BackgroundImageFix"/>
<feBlend mode="normal" in="SourceGraphic" in2="BackgroundImageFix" result="shape"/>
<feGaussianBlur stdDeviation="18.8919" result="effect1_foregroundBlur_40_421"/>
</filter>
</defs>
</svg>
