<svg width="571" height="239" viewBox="0 0 571 239" fill="none" xmlns="http://www.w3.org/2000/svg">
<path d="M135.882 58.1389V52.3789H179.082V75.4189H181.962V66.7789H184.842V58.1389H187.722V52.3789H233.802V55.2589H230.922V75.4189H228.042V95.5789H225.162V118.619H222.282V138.779H219.402V141.659H179.082V135.899H181.962V130.139H184.842V121.499H187.722V112.859H190.602V104.219H193.482V98.4589H196.362V95.5789H190.602V101.339H187.722V109.979H184.842V118.619H181.962V124.379H179.082V133.019H176.202V141.659H156.042V112.859H158.922V92.6989H156.042V95.5789H153.162V135.899H150.282V141.659H109.962V135.899H112.842V127.259H115.722V115.739H118.602V107.099H121.482V95.5789H124.362V86.9389H127.242V78.2989H130.122V66.7789H133.002V58.1389H135.882ZM179.082 84.0589V75.4189H176.202V84.0589H179.082ZM247.701 55.2589V52.3789H279.381V63.8989H276.501V78.2989H273.621V89.8189H270.741V104.219H267.861V118.619H264.981V130.139H262.101V141.659H227.541V138.779H230.421V124.379H233.301V109.979H236.181V95.5789H239.061V84.0589H241.941V69.6589H244.821V55.2589H247.701ZM291.976 58.1389V52.3789H335.176V75.4189H338.056V66.7789H340.936V58.1389H343.816V52.3789H389.896V55.2589H387.016V75.4189H384.136V95.5789H381.256V118.619H378.376V138.779H375.496V141.659H335.176V135.899H338.056V130.139H340.936V121.499H343.816V112.859H346.696V104.219H349.576V98.4589H352.456V95.5789H346.696V101.339H343.816V109.979H340.936V118.619H338.056V124.379H335.176V133.019H332.296V141.659H312.136V112.859H315.016V92.6989H312.136V95.5789H309.256V135.899H306.376V141.659H266.056V135.899H268.936V127.259H271.816V115.739H274.696V107.099H277.576V95.5789H280.456V86.9389H283.336V78.2989H286.216V66.7789H289.096V58.1389H291.976ZM335.176 84.0589V75.4189H332.296V84.0589H335.176ZM403.795 55.2589V52.3789H435.475V63.8989H432.595V78.2989H429.715V89.8189H426.835V104.219H423.955V118.619H421.075V130.139H418.195V141.659H383.635V138.779H386.515V124.379H389.395V109.979H392.275V95.5789H395.155V84.0589H398.035V69.6589H400.915V55.2589H403.795ZM447.926 55.2589V52.3789H508.406V55.2589H511.286V75.4189H508.406V89.8189H505.526V104.219H502.646V107.099H491.126V109.979H473.846V112.859H468.086V104.219H470.966V89.8189H473.846V75.4189H470.966V84.0589H468.086V98.4589H465.206V109.979H462.326V118.619H468.086V115.739H485.366V112.859H499.766V127.259H496.886V138.779H494.006V141.659H427.766V138.779H424.886V124.379H427.766V109.979H430.646V98.4589H433.526V84.0589H436.406V69.6589H439.286V61.0189H442.166V55.2589H447.926Z" fill="black"/>
<path d="M148.882 45.1389V39.3789H192.082V62.4189H194.962V53.7789H197.842V45.1389H200.722V39.3789H246.802V42.2589H243.922V62.4189H241.042V82.5789H238.162V105.619H235.282V125.779H232.402V128.659H192.082V122.899H194.962V117.139H197.842V108.499H200.722V99.8589H203.602V91.2189H206.482V85.4589H209.362V82.5789H203.602V88.3389H200.722V96.9789H197.842V105.619H194.962V111.379H192.082V120.019H189.202V128.659H169.042V99.8589H171.922V79.6989H169.042V82.5789H166.162V122.899H163.282V128.659H122.962V122.899H125.842V114.259H128.722V102.739H131.602V94.0989H134.482V82.5789H137.362V73.9389H140.242V65.2989H143.122V53.7789H146.002V45.1389H148.882ZM192.082 71.0589V62.4189H189.202V71.0589H192.082ZM260.701 42.2589V39.3789H292.381V50.8989H289.501V65.2989H286.621V76.8189H283.741V91.2189H280.861V105.619H277.981V117.139H275.101V128.659H240.541V125.779H243.421V111.379H246.301V96.9789H249.181V82.5789H252.061V71.0589H254.941V56.6589H257.821V42.2589H260.701ZM304.976 45.1389V39.3789H348.176V62.4189H351.056V53.7789H353.936V45.1389H356.816V39.3789H402.896V42.2589H400.016V62.4189H397.136V82.5789H394.256V105.619H391.376V125.779H388.496V128.659H348.176V122.899H351.056V117.139H353.936V108.499H356.816V99.8589H359.696V91.2189H362.576V85.4589H365.456V82.5789H359.696V88.3389H356.816V96.9789H353.936V105.619H351.056V111.379H348.176V120.019H345.296V128.659H325.136V99.8589H328.016V79.6989H325.136V82.5789H322.256V122.899H319.376V128.659H279.056V122.899H281.936V114.259H284.816V102.739H287.696V94.0989H290.576V82.5789H293.456V73.9389H296.336V65.2989H299.216V53.7789H302.096V45.1389H304.976ZM348.176 71.0589V62.4189H345.296V71.0589H348.176ZM416.795 42.2589V39.3789H448.475V50.8989H445.595V65.2989H442.715V76.8189H439.835V91.2189H436.955V105.619H434.075V117.139H431.195V128.659H396.635V125.779H399.515V111.379H402.395V96.9789H405.275V82.5789H408.155V71.0589H411.035V56.6589H413.915V42.2589H416.795ZM460.926 42.2589V39.3789H521.406V42.2589H524.286V62.4189H521.406V76.8189H518.526V91.2189H515.646V94.0989H504.126V96.9789H486.846V99.8589H481.086V91.2189H483.966V76.8189H486.846V62.4189H483.966V71.0589H481.086V85.4589H478.206V96.9789H475.326V105.619H481.086V102.739H498.366V99.8589H512.766V114.259H509.886V125.779H507.006V128.659H440.766V125.779H437.886V111.379H440.766V96.9789H443.646V85.4589H446.526V71.0589H449.406V56.6589H452.286V48.0189H455.166V42.2589H460.926Z" fill="#FFEC41"/>
<path d="M546.924 40.5443C546.924 45.0678 546.623 57.5381 542.946 60.647C539.602 62.7746 537.342 59.4162 533.087 59.4162C528.224 59.4162 528.053 61.6601 523.494 61.6601C518.935 61.6601 517.796 59.4162 513.845 59.4162C509.893 59.4162 509.107 61.6601 504.852 59.9378C500.297 56.7348 501.117 45.6508 501.117 40.5443C501.117 35.7787 502.747 31.1908 506.781 28.0316C510.94 24.775 517.6 24.3416 524.02 24.3416C530.264 24.3416 537.197 25.7008 541.329 28.8008C545.567 31.9812 546.924 35.6432 546.924 40.5443Z" fill="#55BFFF"/>
<g filter="url(#filter0_f_52_352)">
<path d="M543.18 40.5535C543.18 44.3374 542.541 48.5146 539.465 51.1152C535.959 54.0788 529.656 54.2017 524.021 54.2017C519.022 54.2017 512.451 53.514 509.04 51.1152C505.23 48.4359 504.861 44.825 504.861 40.5535C504.861 36.5671 506.225 32.7293 509.6 30.0867C513.079 27.3626 518.649 27 524.021 27C529.243 27 535.043 28.137 538.499 30.7301C542.044 33.3905 543.18 36.4538 543.18 40.5535Z" fill="#91C9FF" fill-opacity="0.75"/>
</g>
<path d="M543.18 40.5535C543.18 44.3374 542.541 48.5146 539.465 51.1152C535.959 54.0788 529.656 54.2017 524.021 54.2017C519.022 54.2017 512.451 53.514 509.04 51.1152C505.23 48.4359 504.861 44.825 504.861 40.5535C504.861 36.5671 506.225 32.7293 509.6 30.0867C513.079 27.3626 518.649 27 524.021 27C529.243 27 535.043 28.137 538.499 30.7301C542.044 33.3905 543.18 36.4538 543.18 40.5535Z" fill="white"/>
<ellipse cx="513.06" cy="37.7224" rx="6.46086" ry="8.9223" transform="rotate(3.83076 513.06 37.7224)" fill="#082746"/>
<mask id="mask0_52_352" style="mask-type:alpha" maskUnits="userSpaceOnUse" x="506" y="28" width="14" height="19">
<ellipse cx="513.06" cy="37.7224" rx="6.46086" ry="8.9223" transform="rotate(3.83076 513.06 37.7224)" fill="white"/>
</mask>
<g mask="url(#mask0_52_352)">
<path d="M511.18 31.5072C512.606 31.6031 513.6 34.0982 513.401 37.0801C513.201 40.0619 511.883 42.4023 510.457 42.3072C509.031 42.2117 508.036 39.7163 508.235 36.7342C508.244 36.6022 508.257 36.4715 508.27 36.3422C508.293 36.3446 508.315 36.3501 508.338 36.3516C508.871 36.3873 509.32 36.16 509.341 35.8442C509.362 35.5346 508.963 35.2558 508.445 35.2116C508.91 32.9958 510.008 31.4287 511.18 31.5072Z" fill="white"/>
</g>
<ellipse cx="528.593" cy="37.7061" rx="6.46086" ry="8.9223" transform="rotate(-3.98754 528.593 37.7061)" fill="#082746"/>
<mask id="mask1_52_352" style="mask-type:alpha" maskUnits="userSpaceOnUse" x="522" y="28" width="14" height="19">
<ellipse cx="528.593" cy="37.7061" rx="6.46086" ry="8.9223" transform="rotate(-3.98754 528.593 37.7061)" fill="white"/>
</mask>
<g mask="url(#mask1_52_352)">
<path d="M525.96 31.109C527.385 31.0099 528.71 33.3466 528.918 36.3279C529.126 39.3092 528.138 41.8062 526.713 41.906C525.287 42.0055 523.963 39.6695 523.755 36.6881C523.745 36.556 523.741 36.4248 523.736 36.2948C523.758 36.2942 523.781 36.2966 523.804 36.295C524.336 36.2579 524.75 35.9716 524.728 35.6559C524.706 35.3463 524.273 35.1244 523.754 35.1512C523.914 32.8925 524.788 31.1907 525.96 31.109Z" fill="white"/>
</g>
<path d="M86.117 94.2769C86.1759 93.8369 86.7659 93.7481 86.9685 94.1431C87.7754 95.7161 89.2123 98.3275 90.493 99.6812C91.8261 101.09 93.9469 102.109 94.8081 102.486C95.0534 102.593 95.3292 102.598 95.5825 102.511L95.717 102.465C95.794 102.439 95.8675 102.404 95.9373 102.362C102.945 98.1588 113.065 97.5582 122.854 97.5582C132.298 97.5582 142.677 99.413 149.716 103.584C150.056 103.786 150.474 103.809 150.82 103.618C151.773 103.092 153.522 102.017 154.619 100.674C155.798 99.2314 157.041 96.5224 157.732 94.8951C157.906 94.4864 158.502 94.5327 158.593 94.9674C159.005 96.9453 159.656 100.59 159.467 103.16C159.277 105.729 158.121 107.945 157.363 109.147C157.095 109.572 157.104 110.121 157.395 110.53C160.273 114.587 161.317 119.2 161.317 124.767C161.317 132.363 160.811 153.305 154.636 158.526C149.021 162.099 145.225 156.459 138.08 156.459C129.914 156.459 129.625 160.227 121.97 160.227C114.314 160.227 112.401 156.459 105.766 156.459C99.1698 156.459 97.8266 160.183 90.7896 157.384C90.7093 157.352 90.6301 157.31 90.5603 157.259C83.0297 151.784 84.3924 133.303 84.3924 124.767C84.3924 119.423 85.615 114.212 88.4441 109.76C88.7186 109.328 88.6906 108.768 88.3863 108.357C87.5448 107.218 86.2166 105.08 85.8387 102.512C85.4635 99.9631 85.8486 96.2796 86.117 94.2769Z" fill="#FF2344"/>
<g filter="url(#filter1_f_52_352)">
<path d="M155.028 124.783C155.028 131.137 153.955 138.151 148.789 142.519C142.902 147.495 132.318 147.702 122.854 147.702C114.461 147.702 103.426 146.547 97.6979 142.519C91.2997 138.019 90.681 131.956 90.681 124.783C90.681 118.088 92.9713 111.644 98.6382 107.206C104.48 102.631 113.835 102.022 122.854 102.022C131.625 102.022 141.363 103.932 147.167 108.286C153.121 112.754 155.028 117.898 155.028 124.783Z" fill="#FF7085"/>
</g>
<path d="M155.028 124.783C155.028 131.137 153.955 138.152 148.789 142.519C142.902 147.496 132.319 147.702 122.855 147.702C114.461 147.702 103.427 146.547 97.6982 142.519C91.3 138.02 90.6813 131.956 90.6813 124.783C90.6813 118.088 92.9716 111.644 98.6385 107.206C104.48 102.632 113.835 102.023 122.855 102.023C131.625 102.023 141.364 103.932 147.167 108.287C153.121 112.754 155.028 117.898 155.028 124.783Z" fill="white"/>
<path d="M99.0813 113.294C98.603 115.17 98.499 117.122 98.7752 119.039C99.0513 120.956 99.7023 122.799 100.691 124.464C101.679 126.129 102.986 127.583 104.537 128.743C106.087 129.903 107.851 130.746 109.727 131.224C111.604 131.703 113.556 131.807 115.472 131.53C117.389 131.254 119.232 130.603 120.897 129.615C122.562 128.626 124.016 127.319 125.176 125.769C126.336 124.218 127.179 122.455 127.658 120.578L113.37 116.936L99.0813 113.294Z" fill="#082746"/>
<mask id="mask2_52_352" style="mask-type:alpha" maskUnits="userSpaceOnUse" x="98" y="113" width="30" height="19">
<path d="M99.0813 113.294C98.603 115.17 98.499 117.122 98.7752 119.039C99.0513 120.956 99.7023 122.799 100.691 124.464C101.679 126.129 102.986 127.583 104.537 128.743C106.087 129.903 107.851 130.746 109.727 131.224C111.604 131.703 113.556 131.807 115.473 131.53C117.389 131.254 119.232 130.603 120.897 129.615C122.562 128.626 124.016 127.319 125.176 125.769C126.336 124.218 127.179 122.455 127.658 120.578L113.37 116.936L99.0813 113.294Z" fill="white"/>
</mask>
<g mask="url(#mask2_52_352)">
<circle cx="119.652" cy="116.78" r="5.10775" transform="rotate(-165.7 119.652 116.78)" fill="white"/>
</g>
<path d="M158.932 112.948C159.411 114.824 159.515 116.776 159.239 118.693C158.962 120.609 158.311 122.453 157.323 124.118C156.334 125.783 155.027 127.237 153.477 128.397C151.926 129.557 150.163 130.4 148.286 130.878C146.41 131.356 144.458 131.46 142.541 131.184C140.625 130.908 138.781 130.257 137.116 129.269C135.451 128.28 133.997 126.973 132.837 125.423C131.677 123.872 130.834 122.108 130.356 120.232L144.644 116.59L158.932 112.948Z" fill="#082746"/>
<mask id="mask3_52_352" style="mask-type:alpha" maskUnits="userSpaceOnUse" x="130" y="112" width="30" height="20">
<path d="M158.932 112.948C159.411 114.824 159.515 116.776 159.239 118.693C158.962 120.609 158.311 122.453 157.323 124.118C156.334 125.783 155.027 127.237 153.477 128.397C151.926 129.557 150.163 130.4 148.286 130.878C146.41 131.356 144.458 131.46 142.541 131.184C140.625 130.908 138.781 130.257 137.116 129.269C135.451 128.28 133.997 126.973 132.837 125.423C131.677 123.872 130.834 122.108 130.356 120.232L144.644 116.59L158.932 112.948Z" fill="white"/>
</mask>
<g mask="url(#mask3_52_352)">
<circle cx="151.205" cy="116.342" r="5.10702" transform="rotate(165.7 151.205 116.342)" fill="white"/>
</g>
<defs>
<filter id="filter0_f_52_352" x="477.861" y="0" width="92.318" height="81.2017" filterUnits="userSpaceOnUse" color-interpolation-filters="sRGB">
<feFlood flood-opacity="0" result="BackgroundImageFix"/>
<feBlend mode="normal" in="SourceGraphic" in2="BackgroundImageFix" result="shape"/>
<feGaussianBlur stdDeviation="13.5" result="effect1_foregroundBlur_52_352"/>
</filter>
<filter id="filter1_f_52_352" x="3.8147e-06" y="11.3414" width="245.709" height="227.041" filterUnits="userSpaceOnUse" color-interpolation-filters="sRGB">
<feFlood flood-opacity="0" result="BackgroundImageFix"/>
<feBlend mode="normal" in="SourceGraphic" in2="BackgroundImageFix" result="shape"/>
<feGaussianBlur stdDeviation="45.3405" result="effect1_foregroundBlur_52_352"/>
</filter>
</defs>
</svg>
