<svg width="69" height="61" viewBox="0 0 69 61" fill="none" xmlns="http://www.w3.org/2000/svg">
<path d="M34.1921 18.0312C38.817 18.0313 43.952 19.0378 47.0124 21.334C47.2286 21.4962 47.5384 21.4718 47.7063 21.2599C48.0276 20.8543 48.3247 20.4361 48.5407 20.1191C48.651 19.9573 48.9052 20.0288 48.9069 20.2246C48.9124 20.8351 48.8972 21.7936 48.7902 22.6889C48.7728 22.835 48.8177 22.9818 48.9132 23.0937C50.5747 25.0404 51.1579 27.2709 51.1579 30.0332C51.1579 33.3842 50.9347 42.621 48.2106 44.9238C45.7341 46.4998 44.0599 44.0117 40.9079 44.0117C37.3057 44.0117 37.1786 45.6738 33.8015 45.6738C30.4245 45.6738 29.5808 44.0117 26.654 44.0117C23.7442 44.0118 23.1516 45.655 20.0475 44.4203C20.0121 44.4063 19.9771 44.3876 19.9463 44.3652C16.6247 41.9501 17.2262 33.7984 17.2263 30.0332C17.2263 27.4115 17.8928 24.8627 19.4598 22.7658C19.5437 22.6535 19.5796 22.5122 19.5595 22.3734C19.4191 21.4047 19.3989 20.3076 19.405 19.6338C19.4067 19.438 19.6609 19.3665 19.7712 19.5283C20.0006 19.8649 20.3212 20.3154 20.6653 20.7437C20.8379 20.9585 21.1522 20.9784 21.3679 20.807C21.3857 20.7928 21.4036 20.7787 21.4216 20.7646C24.5022 18.3523 29.4359 18.0312 34.1921 18.0312Z" fill="#FF70A9"/>
<g filter="url(#filter0_f_40_384)">
<path d="M48.3837 30.0397C48.3837 32.8425 47.9106 35.9367 45.6319 37.8631C43.035 40.0584 38.3665 40.1494 34.1919 40.1494C30.4893 40.1494 25.6221 39.64 23.0952 37.8631C20.2729 35.8784 20 33.2037 20 30.0397C20 27.0867 21.0102 24.2439 23.51 22.2865C26.0868 20.2686 30.2133 20 34.1919 20C38.0607 20 42.3564 20.8422 44.9164 22.7631C47.5428 24.7337 48.3837 27.0028 48.3837 30.0397Z" fill="#FFC0D3" fill-opacity="0.75"/>
</g>
<path d="M48.3839 30.0397C48.3839 32.8425 47.9107 35.9367 45.632 37.8631C43.0352 40.0584 38.3667 40.1494 34.192 40.1494C30.4894 40.1494 25.6222 39.64 23.0953 37.8631C20.273 35.8784 20.0001 33.2037 20.0001 30.0397C20.0001 27.0867 21.0104 24.2439 23.5101 22.2865C26.087 20.2686 30.2135 20 34.192 20C38.0608 20 42.3565 20.8422 44.9165 22.7631C47.5429 24.7337 48.3839 27.0028 48.3839 30.0397Z" fill="white"/>
<path d="M20.9917 25.854C20.7807 26.6817 20.7348 27.5428 20.8566 28.3882C20.9784 29.2336 21.2656 30.0468 21.7017 30.7812C22.1377 31.5157 22.7142 32.157 23.3981 32.6687C24.082 33.1803 24.8601 33.5523 25.6877 33.7632C26.5154 33.9742 27.3765 34.0201 28.2219 33.8983C29.0673 33.7765 29.8805 33.4893 30.6149 33.0533C31.3494 32.6172 31.9907 32.0407 32.5024 31.3568C33.014 30.6729 33.386 29.8949 33.5969 29.0672L27.2943 27.4606L20.9917 25.854Z" fill="#082746"/>
<mask id="mask0_40_384" style="mask-type:alpha" maskUnits="userSpaceOnUse" x="20" y="25" width="14" height="9">
<path d="M20.9917 25.854C20.7807 26.6817 20.7348 27.5428 20.8566 28.3882C20.9784 29.2336 21.2656 30.0468 21.7017 30.7812C22.1377 31.5157 22.7142 32.157 23.3981 32.6687C24.082 33.1803 24.8601 33.5523 25.6877 33.7632C26.5154 33.9742 27.3765 34.0201 28.2219 33.8983C29.0673 33.7765 29.8805 33.4893 30.6149 33.0533C31.3494 32.6172 31.9907 32.0407 32.5024 31.3568C33.014 30.6729 33.386 29.8949 33.5969 29.0672L27.2943 27.4606L20.9917 25.854Z" fill="white"/>
</mask>
<g mask="url(#mask0_40_384)">
<circle cx="27.3597" cy="28.7153" r="2.25306" transform="rotate(-165.7 27.3597 28.7153)" fill="white"/>
</g>
<path d="M47.3924 25.7012C47.6033 26.5289 47.6492 27.39 47.5274 28.2354C47.4056 29.0808 47.1184 29.894 46.6824 30.6284C46.2463 31.3628 45.6699 32.0042 44.9859 32.5158C44.302 33.0275 43.524 33.3994 42.6963 33.6104C41.8686 33.8214 41.0075 33.8673 40.1621 33.7455C39.3167 33.6236 38.5036 33.3365 37.7691 32.9004C37.0347 32.4644 36.3933 31.8879 35.8817 31.204C35.37 30.52 34.9981 29.742 34.7871 28.9144L41.0897 27.3078L47.3924 25.7012Z" fill="#082746"/>
<mask id="mask1_40_384" style="mask-type:alpha" maskUnits="userSpaceOnUse" x="34" y="25" width="14" height="9">
<path d="M47.3924 25.7012C47.6033 26.5289 47.6492 27.39 47.5274 28.2354C47.4056 29.0808 47.1184 29.894 46.6824 30.6284C46.2463 31.3628 45.6699 32.0042 44.9859 32.5158C44.302 33.0275 43.524 33.3994 42.6963 33.6104C41.8686 33.8214 41.0075 33.8673 40.1621 33.7455C39.3167 33.6236 38.5036 33.3365 37.7691 32.9004C37.0347 32.4644 36.3933 31.8879 35.8817 31.204C35.37 30.52 34.9981 29.742 34.7871 28.9144L41.0897 27.3078L47.3924 25.7012Z" fill="white"/>
</mask>
<g mask="url(#mask1_40_384)">
<circle cx="41.2778" cy="28.5219" r="2.25274" transform="rotate(165.7 41.2778 28.5219)" fill="white"/>
</g>
<defs>
<filter id="filter0_f_40_384" x="0" y="0" width="68.3838" height="60.1494" filterUnits="userSpaceOnUse" color-interpolation-filters="sRGB">
<feFlood flood-opacity="0" result="BackgroundImageFix"/>
<feBlend mode="normal" in="SourceGraphic" in2="BackgroundImageFix" result="shape"/>
<feGaussianBlur stdDeviation="10" result="effect1_foregroundBlur_40_384"/>
</filter>
</defs>
</svg>
