<svg width="69" height="61" viewBox="0 0 69 61" fill="none" xmlns="http://www.w3.org/2000/svg">
<path d="M51.1576 30.0328C51.1576 33.3835 50.9347 42.6208 48.2105 44.9237C45.734 46.4997 44.0598 44.012 40.9078 44.012C37.3056 44.012 37.1786 45.6742 33.8015 45.6742C30.4244 45.6742 29.5809 44.012 26.654 44.012C23.7272 44.012 23.1449 45.6742 19.9929 44.3984C16.6189 42.0258 17.2258 33.8154 17.2258 30.0328C17.2258 26.5027 18.4335 23.1042 21.4219 20.7641C24.5025 18.3518 29.4355 18.0308 34.1917 18.0308C38.8168 18.0308 43.9521 19.0376 47.0125 21.3339C50.1523 23.6897 51.1576 26.4024 51.1576 30.0328Z" fill="#55BFFF"/>
<g filter="url(#filter0_f_40_364)">
<path d="M48.3837 30.0397C48.3837 32.8425 47.9106 35.9367 45.6319 37.8631C43.035 40.0584 38.3665 40.1494 34.1919 40.1494C30.4893 40.1494 25.6221 39.64 23.0952 37.8631C20.2729 35.8784 20 33.2037 20 30.0397C20 27.0867 21.0102 24.2439 23.51 22.2865C26.0868 20.2686 30.2133 20 34.1919 20C38.0607 20 42.3564 20.8422 44.9164 22.7631C47.5428 24.7337 48.3837 27.0028 48.3837 30.0397Z" fill="#91C9FF" fill-opacity="0.75"/>
</g>
<path d="M48.3837 30.0397C48.3837 32.8425 47.9106 35.9367 45.6319 37.8631C43.035 40.0584 38.3665 40.1494 34.1919 40.1494C30.4893 40.1494 25.6221 39.64 23.0952 37.8631C20.2729 35.8784 20 33.2037 20 30.0397C20 27.0867 21.0102 24.2439 23.51 22.2865C26.0868 20.2686 30.2133 20 34.1919 20C38.0607 20 42.3564 20.8422 44.9164 22.7631C47.5428 24.7337 48.3837 27.0028 48.3837 30.0397Z" fill="white"/>
<ellipse cx="28.4304" cy="28.8079" rx="4.78582" ry="6.60911" transform="rotate(3.83076 28.4304 28.8079)" fill="#082746"/>
<mask id="mask0_40_364" style="mask-type:alpha" maskUnits="userSpaceOnUse" x="23" y="22" width="11" height="14">
<ellipse cx="28.4304" cy="28.8079" rx="4.78582" ry="6.60911" transform="rotate(3.83076 28.4304 28.8079)" fill="white"/>
</mask>
<g mask="url(#mask0_40_364)">
<path d="M28.7412 24.9455C29.7974 25.0164 30.5339 26.8637 30.3861 29.0724C30.2382 31.2813 29.262 33.0147 28.2056 32.9441C27.1492 32.8734 26.4128 31.0252 26.5607 28.8162C26.5673 28.7186 26.5773 28.622 26.587 28.5263C26.6034 28.5281 26.6197 28.5324 26.6364 28.5336C27.0311 28.56 27.3634 28.3914 27.379 28.1575C27.3943 27.9279 27.0988 27.7207 26.7146 27.6883C27.0593 26.0471 27.8731 24.8873 28.7412 24.9455Z" fill="white"/>
</g>
<ellipse cx="39.9361" cy="28.7957" rx="4.78582" ry="6.60911" transform="rotate(-3.98754 39.9361 28.7957)" fill="#082746"/>
<mask id="mask1_40_364" style="mask-type:alpha" maskUnits="userSpaceOnUse" x="35" y="22" width="10" height="14">
<ellipse cx="39.9361" cy="28.7957" rx="4.78582" ry="6.60911" transform="rotate(-3.98754 39.9361 28.7957)" fill="white"/>
</mask>
<g mask="url(#mask1_40_364)">
<path d="M39.6893 24.6503C40.7454 24.5768 41.7264 26.3068 41.8805 28.515C42.0346 30.7235 41.3033 32.5736 40.2471 32.6475C39.1909 32.7211 38.2099 30.9903 38.0559 28.7818C38.049 28.6841 38.0458 28.5871 38.0424 28.491C38.0589 28.4905 38.0756 28.4926 38.0924 28.4914C38.487 28.4639 38.7932 28.2517 38.7769 28.0179C38.7608 27.7883 38.4399 27.6233 38.0548 27.6434C38.1729 25.9706 38.8214 24.7108 39.6893 24.6503Z" fill="white"/>
</g>
<defs>
<filter id="filter0_f_40_364" x="0" y="0" width="68.3838" height="60.1494" filterUnits="userSpaceOnUse" color-interpolation-filters="sRGB">
<feFlood flood-opacity="0" result="BackgroundImageFix"/>
<feBlend mode="normal" in="SourceGraphic" in2="BackgroundImageFix" result="shape"/>
<feGaussianBlur stdDeviation="10" result="effect1_foregroundBlur_40_364"/>
</filter>
</defs>
</svg>
